# AST/ASF file generated using VICON BodyLanguage
# -----------------------------------------------
:version 1.10
:name VICON
:units
  mass 1.0
  length 0.45
  angle deg
:documentation
   .ast/.asf automatically generated from VICON data using
   VICON BodyBuilder and BodyLanguage model FoxedUp or BRILLIANT.MOD
:root
   order TX TY TZ RX RY RZ
   axis XYZ
   position 0 0 0  
   orientation 0 0 0 
:bonedata
  begin
     id 1 
     name lhipjoint
     direction 0.650112 -0.723553 0.232005 
     length 2.45805 
     axis 0 0 0  XYZ
  end
  begin
     id 2 
     name lfemur
     direction 0.34202 -0.939693 0  
     length 7.00073  
     axis 0 0 20  XYZ
    dof rx ry rz
    limits (-160.0 20.0)
           (-70.0 70.0)
           (-60.0 70.0)
  end
  begin
     id 3 
     name ltibia
     direction 0.34202 -0.939693 0   
     length 7.8748   
     axis 0 0 20   XYZ
    dof rx
    limits (-10.0 170.0)
  end
  begin
     id 4 
     name lfoot
     direction 0.0542825 -0.14914 0.987325   
     length 1.75978   
     axis -90 7.62852e-016 20   XYZ
    dof rx rz
    limits (-45.0 90.0)
           (-70.0 20.0)
  end
  begin
     id 5 
     name ltoes
     direction 1.53509e-011 -4.21906e-011 1   
     length 0.893912   
     axis -90 7.62852e-016 20   XYZ
    dof rx
    limits (-90.0 20.0)
  end
  begin
     id 6 
     name rhipjoint
     direction -0.637897 -0.733345 0.235145   
     length 2.42522  
     axis 0 0 0  XYZ 
  end
  begin
     id 7 
     name rfemur
     direction -0.34202 -0.939693 0   
     length 7.02549   
     axis 0 0 -20   XYZ
    dof rx ry rz
    limits (-160.0 20.0)
           (-70.0 70.0)
           (-70.0 60.0)
  end
  begin
     id 8 
     name rtibia
     direction -0.34202 -0.939693 0   
     length 7.71512   
     axis 0 0 -20   XYZ
    dof rx
    limits (-10.0 170.0)
 end
 begin
     id 9 
     name rfoot
     direction -0.0822618 -0.226012 0.970645   
     length 1.90014  
     axis -90 -7.62852e-016 -20   XYZ
    dof rx rz
    limits (-45.0 90.0)
           (-20.0 70.0)
  end
  begin
     id 10 
     name rtoes
     direction -1.53542e-011 -4.21872e-011 1   
     length 0.957341   
     axis -90 -7.62852e-016 -20   XYZ
    dof rx
    limits (-90.0 20.0)
  end
  begin
     id 11 
     name lowerback
     direction -0.0022947 0.999774 -0.0211557   
     length 1.89909   
     axis 0 0 0   XYZ
    dof rx ry rz
    limits (-20.0 45.0)
           (-30.0 30.0)
           (-30.0 30.0)
  end
  begin
     id 12 
     name upperback
     direction 0.0107737 0.998635 0.0511027   
     length 1.8853   
     axis 0 0 0   XYZ
    dof rx ry rz
    limits (-20.0 45.0)
           (-30.0 30.0)
           (-30.0 30.0)
  end
  begin
     id 13 
     name thorax
     direction 0.011824 0.998136 0.0598754   
     length 1.88911   
     axis 0 0 0   XYZ
    dof rx ry rz
    limits (-20.0 45.0)
           (-30.0 30.0)
           (-30.0 30.0)
  end
  begin
     id 14 
     name lowerneck
     direction -0.0685355 0.990319 0.120714   
     length 1.91222   
     axis 0 0 0   XYZ
    dof rx ry rz
    limits (-20.0 45.0)
           (-30.0 30.0)
           (-30.0 30.0)
  end
  begin
     id 15 
     name upperneck
     direction 0.0886204 0.955665 -0.280805   
     length 1.92526   
     axis 0 0 0   XYZ
    dof rx ry rz
    limits (-20.0 45.0)
           (-30.0 30.0)
           (-30.0 30.0)
  end
  begin
     id 16
     name head
     direction 0.0233423 0.993502 -0.111393  
     length 1.96056  
     axis 0 0 0   XYZ
    dof rx ry rz
    limits (-20.0 45.0)
           (-30.0 30.0)
           (-30.0 30.0)
  end
  begin
     id 17 
     name lclavicle
     direction 0.941873 0.32922 0.0670041  
     length 3.31705  
     axis 0 0 0   XYZ
    dof ry rz
    limits (-20.0 10.0)
           (0.0 20.0)
  end
  begin
     id 18 
     name lhumerus
     direction 1 -4.4898e-011 3.38707e-028   
     length 5.29277   
     axis 180 -30 -90   XYZ
    dof rx ry rz
    limits (-60.0 90.0)
           (-90.0 90.0)
           (-90.0 90.0)
  end
  begin
     id 19
     name lradius
     direction 1 -4.48952e-011 1.63213e-028   
     length 2.85226   
     axis 180 -30 -90   XYZ
    dof rx
    limits (-10.0 170.0)
  end
  begin
     id 20
     name lwrist
     direction 1 -4.49001e-011 1.27856e-027   
     length 1.42613   
     axis -1.61767e-015 90 90   XYZ
    dof ry
    limits (-180.0 0.0)
 end
  begin
     id 21 
     name lhand
     direction 1 -4.48976e-011 2.55931e-027   
     length 0.602097   
     axis -1.63363e-015 90 90   XYZ
    dof rx rz
    limits (-90.0 90.0)
           (-45.0 45.0)
  end
  begin
     id 22 
     name lfingers
     direction 1 -4.48986e-011 5.11684e-027   
     length 0.485426   
     axis -3.26723e-015 90 90   XYZ
    dof rx
    limits (0.0 90.0)
  end
  begin
     id 23
     name lthumb
     direction 0.707107 -6.34915e-011 0.707107   
     length 0.696978   
     axis -90 45 -2.25915e-014   XYZ
    dof rx rz
    limits (-45.0 45.0)
           (-45.0 45.0)
  end
  begin
     id 24 
     name rclavicle
     direction -0.939974 0.327078 0.0973096   
     length 3.10337  
     axis 0 0 0   XYZ 
    dof ry rz
    limits (-10.0 20.0)
           (-20.0 0.0)
  end
  begin
     id 25 
     name rhumerus
     direction -1 -4.48975e-011 1.83745e-027  
     length 5.13304   
     axis 180 30 90   XYZ
    dof rx ry rz
    limits (-90.0 60.0)
           (-90.0 90.0)
           (-90.0 90.0)
  end
  begin
     id 26 
     name rradius
     direction -1 -4.48977e-011 7.1775e-029   
     length 2.74305   
     axis 180 30 90   XYZ
    dof rx
    limits (-10.0 170.0)
  end
  begin
     id 27 
     name rwrist
     direction -1 -4.48977e-011 1.27963e-027   
     length 1.37152   
     axis -1.61767e-015 -90 -90   XYZ
    dof ry
    limits (-180.0 0.0)
  end
  begin
     id 28
     name rhand
     direction -1 -4.4888e-011 2.56782e-027   
     length 0.767976   
     axis -1.63363e-015 -90 -90   XYZ
    dof rx rz
    limits (-90.0 90.0)
           (-45.0 45.0)
  end
  begin
     id 29
     name rfingers
     direction -1 -4.48947e-011 5.12384e-027   
     length 0.619162   
     axis -3.26723e-015 -90 -90   XYZ
    dof rx
    limits (0.0 90.0)
  end
  begin
     id 30
     name rthumb
     direction -0.707107 -6.34857e-011 0.707107   
     length 0.888997   
     axis -90 -45 2.25915e-014   XYZ
    dof rx rz
    limits (-45.0 45.0)
           (-45.0 45.0)
  end
:hierarchy
  begin
    root lhipjoint rhipjoint lowerback
    lhipjoint lfemur
    lfemur ltibia
    ltibia lfoot
    lfoot ltoes
    rhipjoint rfemur
    rfemur rtibia
    rtibia rfoot
    rfoot rtoes
    lowerback upperback
    upperback thorax
    thorax lowerneck lclavicle rclavicle
    lowerneck upperneck
    upperneck head
    lclavicle lhumerus
    lhumerus lradius
    lradius lwrist
    lwrist lhand lthumb
    lhand lfingers
    rclavicle rhumerus
    rhumerus rradius
    rradius rwrist
    rwrist rhand rthumb
    rhand rfingers
  end

#!OML:ASF F:\VICON\USERDATA\INSTALL\rory3\rory3.ASF
:FULLY-SPECIFIED
:DEGREES
1174
root 1.04365 17.0259 -0.592763 -5.87598 -20.0169 2.71005
lowerback 2.82341 -8.07685 5.51574
upperback 5.58996 -11.001 4.7007
thorax 4.18378 -5.40841 1.77075
lowerneck -16.8456 -6.33036 -6.93341
upperneck 27.1696 -8.76226 4.97766
head 12.3096 -4.05966 1.65003
rclavicle -1.03368e-014 -3.18055e-014
rhumerus -16.4312 -9.1471 -74.5552
rradius 35.6142
rwrist 14.4175
rhand -7.03327 12.3704
rfingers 7.12502
rthumb 18.8388 -16.7374
lclavicle -1.03368e-014 -3.18055e-014
lhumerus 87.2059 -51.5267 -33.1631
lradius 105.223
lwrist 41.3555
lhand 46.6615 33.1488
lfingers 7.12502
lthumb 67.6294 35.2323
rfemur -6.65611 16.3341 13.4451
rtibia 27.9089
rfoot -17.8501 -0.714849
rtoes -15.9699
lfemur 0.221702 0.461991 -25.71
ltibia 25.0865
lfoot -20.5797 12.4313
ltoes -8.66084
1175
root 1.03832 17.0308 -0.594628 -5.70457 -20.6949 3.00341
lowerback 2.67157 -7.92049 5.36669
upperback 5.64651 -10.8039 4.49474
thorax 4.31129 -5.30654 1.61037
lowerneck -16.4518 -6.6255 -7.27259
upperneck 26.7806 -9.4873 6.26762
head 12.2242 -4.26643 2.07995
rclavicle -6.16232e-014 2.22639e-014
rhumerus -16.9606 -7.0382 -75.1465
rradius 37.5785
rwrist 12.814
rhand -7.45638 12.7227
rfingers 7.12502
rthumb 18.4318 -16.424
lclavicle -6.16232e-014 2.22639e-014
lhumerus 86.8303 -52.173 -32.8631
lradius 104.839
lwrist 40.5322
lhand 46.2131 32.9654
lfingers 7.12502
lthumb 67.299 35.7796
rfemur -7.24488 16.484 13.0532
rtibia 28.0383
rfoot -17.838 -0.207025
rtoes -15.6109
lfemur 0.0092912 0.672137 -26.0039
ltibia 24.9588
lfoot -20.6984 12.7159
ltoes -7.84076
1176
root 1.03545 17.0314 -0.599718 -5.66039 -21.0967 3.62277
lowerback 2.55221 -7.80073 4.86205
upperback 5.75312 -10.6543 4.23846
thorax 4.52599 -5.24119 1.58408
lowerneck -16.3967 -6.97476 -7.56455
upperneck 26.5318 -10.2667 7.48113
head 12.2772 -4.49516 2.45308
rclavicle 2.12302e-013 -5.725e-014
rhumerus -17.3584 -5.13886 -75.6821
rradius 39.4644
rwrist 11.0517
rhand -8.13914 13.103
rfingers 7.12502
rthumb 17.775 -16.1046
lclavicle 2.12302e-013 -5.725e-014
lhumerus 86.1846 -52.5658 -32.2622
lradius 104.517
lwrist 39.404
lhand 45.3443 33.5846
lfingers 7.12502
lthumb 66.6484 37.7536
rfemur -7.78731 16.3918 12.2887
rtibia 28.1844
rfoot -17.8576 0.336739
rtoes -15.2415
lfemur -0.149426 0.688332 -26.6626
ltibia 24.7115
lfoot -20.7043 12.9858
ltoes -7.14263
1177
root 1.02862 17.0343 -0.606586 -5.62026 -21.4973 3.87441
lowerback 2.65647 -7.68471 4.40248
upperback 5.85045 -10.5021 4.23702
thorax 4.64912 -5.18536 1.8277
lowerneck -16.428 -7.29765 -8.01131
upperneck 26.4912 -10.961 8.62156
head 12.4434 -4.70719 2.83754
rclavicle 8.98507e-014 -3.33958e-014
rhumerus -17.7836 -3.26482 -75.9102
rradius 41.2919
rwrist 9.46869
rhand -8.93279 13.1763
rfingers 7.12502
rthumb 17.0111 -16.0988
lclavicle 8.98507e-014 -3.33958e-014
lhumerus 85.0734 -53.2941 -30.9111
lradius 104.022
lwrist 37.6556
lhand 44.5946 33.8362
lfingers 7.12502
lthumb 66.0764 39.1127
rfemur -8.12655 16.4612 11.9963
rtibia 28.2774
rfoot -17.8879 0.669043
rtoes -15.3753
lfemur -0.139657 0.640265 -26.9343
ltibia 24.4199
lfoot -20.6377 13.349
ltoes -6.65801
1178
root 1.01985 17.0416 -0.610469 -5.42467 -21.8376 3.79118
lowerback 2.81786 -7.58715 4.14772
upperback 5.80591 -10.3679 4.44228
thorax 4.59422 -5.13958 2.19522
lowerneck -16.2119 -7.57818 -8.55341
upperneck 26.4493 -11.5174 9.5304
head 12.547 -4.90583 3.18206
rclavicle -1.11319e-014 -2.8625e-014
rhumerus -18.4218 -1.57535 -75.8224
rradius 43.0324
rwrist 8.47486
rhand -9.49734 13.1865
rfingers 7.12502
rthumb 16.4677 -16.1346
lclavicle -1.11319e-014 -2.8625e-014
lhumerus 84.111 -54.2903 -29.4377
lradius 103.397
lwrist 35.5736
lhand 44.1701 33.6988
lfingers 7.12502
lthumb 65.7484 39.5783
rfemur -8.39306 16.5608 12.0658
rtibia 28.2443
rfoot -17.8706 0.928362
rtoes -15.0359
lfemur -0.169955 0.508075 -26.8684
ltibia 24.1668
lfoot -20.6432 13.7367
ltoes -6.12543
1179
root 1.00812 17.0513 -0.614943 -5.25565 -22.0554 3.80299
lowerback 3.01266 -7.45101 3.92474
upperback 5.72481 -10.1671 4.48606
thorax 4.44083 -5.05424 2.39092
lowerneck -15.9364 -7.88869 -8.80308
upperneck 26.3899 -12.156 10.2673
head 12.6177 -5.1366 3.3992
rclavicle 6.75868e-015 1.43125e-014
rhumerus -19.2451 -0.257181 -75.8646
rradius 44.7205
rwrist 7.55987
rhand -10.0674 13.1535
rfingers 7.12502
rthumb 15.9188 -16.2123
lclavicle 6.75868e-015 1.43125e-014
lhumerus 84.0298 -55.0028 -28.893
lradius 102.813
lwrist 33.6953
lhand 43.7799 33.7437
lfingers 7.12502
lthumb 65.4445 40.1626
rfemur -8.56092 16.5104 12.0414
rtibia 28.0429
rfoot -17.7473 1.10856
rtoes -15.1025
lfemur -0.250006 0.368931 -26.881
ltibia 23.9825
lfoot -20.6408 14.0637
ltoes -5.61343
1180
root 0.994737 17.0622 -0.620337 -4.99747 -22.234 3.63924
lowerback 3.17922 -7.24755 3.85422
upperback 5.58642 -9.87597 4.59509
thorax 4.22581 -4.91875 2.57347
lowerneck -15.6037 -8.17216 -8.97886
upperneck 26.4085 -12.7292 10.7996
head 12.6852 -5.35749 3.54032
rclavicle -1.07344e-014 3.18055e-014
rhumerus -20.1948 0.408098 -75.7742
rradius 46.1796
rwrist 7.02982
rhand -10.5607 13.2446
rfingers 7.12502
rthumb 15.4436 -16.1584
lclavicle -1.07344e-014 3.18055e-014
lhumerus 84.4542 -55.6751 -28.6147
lradius 102.162
lwrist 31.8275
lhand 43.6853 33.853
lfingers 7.12502
lthumb 65.3706 40.4006
rfemur -8.69171 16.506 12.1983
rtibia 27.7362
rfoot -17.5287 1.31539
rtoes -14.9065
lfemur -0.364271 0.301749 -26.6853
ltibia 23.7978
lfoot -20.7494 14.2608
ltoes -5.60698
1181
root 0.979994 17.0748 -0.627277 -4.72977 -22.3732 3.4704
lowerback 3.34859 -7.02738 3.66101
upperback 5.41156 -9.56635 4.81071
thorax 4.00785 -4.78217 2.93088
lowerneck -15.2971 -8.42124 -9.2997
upperneck 26.496 -13.1994 11.2638
head 12.7836 -5.55317 3.69893
rclavicle -7.43455e-014 -5.40694e-014
rhumerus -21.1615 1.22972 -75.5099
rradius 47.4717
rwrist 6.4044
rhand -11.1688 13.2974
rfingers 7.12502
rthumb 14.8579 -16.1498
lclavicle -7.43455e-014 -5.40694e-014
lhumerus 84.8603 -56.4843 -28.1165
lradius 101.338
lwrist 29.7735
lhand 43.9253 33.4227
lfingers 7.12502
lthumb 65.558 39.6423
rfemur -8.8044 16.5188 12.3572
rtibia 27.4021
rfoot -17.2915 1.55675
rtoes -14.2937
lfemur -0.458119 0.0918856 -26.5036
ltibia 23.5602
lfoot -20.8061 14.533
ltoes -5.05936
1182
root 0.963251 17.0876 -0.633189 -4.54986 -22.3846 3.46108
lowerback 3.57025 -6.82416 3.30828
upperback 5.21726 -9.2752 4.99376
thorax 3.75599 -4.65934 3.34727
lowerneck -15.1618 -8.67256 -9.51092
upperneck 26.7255 -13.6297 11.4667
head 12.9424 -5.74032 3.74233
rclavicle -2.42517e-014 3.49861e-014
rhumerus -22.1815 2.05108 -75.2183
rradius 48.6964
rwrist 5.83961
rhand -11.7052 13.3093
rfingers 7.12502
rthumb 14.3411 -16.1754
lclavicle -2.42517e-014 3.49861e-014
lhumerus 85.365 -57.3224 -27.638
lradius 100.364
lwrist 27.8687
lhand 44.28 32.7188
lfingers 7.12502
lthumb 65.8336 38.4438
rfemur -8.81245 16.4985 12.3754
rtibia 27.023
rfoot -17.0905 1.56455
rtoes -14.5083
lfemur -0.502495 -0.260341 -26.4953
ltibia 23.3024
lfoot -20.6706 14.698
ltoes -4.34284
